<svg width="122" height="33" viewBox="0 0 122 33" fill="none" xmlns="http://www.w3.org/2000/svg">
<g clip-path="url(#clip0_2_28)">
<path d="M9.34459 30.3027L19.3496 21.8515L17.6179 19.8133L7.61288 28.2645L9.34459 30.3027Z" fill="white"/>
<path d="M18.7364 19.0544L10.2605 9.0786L8.2164 10.8053L16.6923 20.7811L18.7364 19.0544Z" fill="white"/>
<path d="M6.88016 13.7202C10.68 13.7202 13.7603 10.6488 13.7603 6.86008C13.7603 3.07136 10.68 0 6.88016 0C3.08035 0 0 3.07136 0 6.86008C0 10.6488 3.08035 13.7202 6.88016 13.7202Z" fill="white"/>
<path d="M17.9791 24.1027C19.8782 24.1027 21.4177 22.5677 21.4177 20.6742C21.4177 18.7806 19.8782 17.2456 17.9791 17.2456C16.08 17.2456 14.5405 18.7806 14.5405 20.6742C14.5405 22.5677 16.08 24.1027 17.9791 24.1027Z" fill="#B5B5B5"/>
<path d="M7.89585 33C9.79494 33 11.3345 31.465 11.3345 29.5714C11.3345 27.6779 9.79494 26.1429 7.89585 26.1429C5.99676 26.1429 4.45724 27.6779 4.45724 29.5714C4.45724 31.465 5.99676 33 7.89585 33Z" fill="white"/>
<path d="M97.1937 13.5117C97.2173 12.6517 98.0298 11.9413 98.9601 11.9413C99.8904 11.9413 100.727 12.6252 100.727 13.5117V28.0949C100.727 28.9755 99.914 29.6624 98.9601 29.6624C98.0063 29.6624 97.2084 28.955 97.1937 28.0949V22.2241C96.8074 22.8118 96.2795 23.2936 95.6582 23.6254C95.0369 23.9572 94.3421 24.1283 93.6374 24.1233C90.6168 24.1233 87.8759 21.8953 87.8759 17.9589C87.8759 14.0225 90.6168 11.8327 93.6374 11.8327C94.3999 11.8327 96.178 12.1614 97.1937 13.7319V13.5117ZM94.3233 20.9795C95.9219 20.9795 97.2173 19.5616 97.2173 17.9912C97.2173 16.4207 95.9219 15.0059 94.3233 15.0059C92.5569 15.0059 91.5294 16.4237 91.5294 17.9912C91.5294 19.5587 92.5451 20.9795 94.3233 20.9795Z" fill="white"/>
<path d="M111.513 22.1683C111.165 22.7657 110.665 23.2607 110.063 23.6035C109.461 23.9463 108.78 24.1246 108.087 24.1204C105.419 24.1204 103.718 22.8024 103.718 19.4237V13.5117C103.718 12.6311 104.53 11.9413 105.484 11.9413C106.438 11.9413 107.236 12.6517 107.25 13.5117V18.3728C107.25 19.9432 107.839 20.7006 109.311 20.7006C110.557 20.7006 111.496 20.1135 111.496 18.3229V13.5117C111.496 12.6311 112.308 11.9413 113.262 11.9413C114.216 11.9413 115.014 12.6517 115.029 13.5117V22.4472C115.002 23.3102 114.192 24.0176 113.262 24.0176C112.332 24.0176 111.496 23.3337 111.496 22.4472L111.513 22.1683Z" fill="white"/>
<path d="M119.839 5.64481C120.117 5.63541 120.394 5.68142 120.653 5.78014C120.913 5.87886 121.15 6.0283 121.351 6.21969C121.552 6.41109 121.713 6.64059 121.824 6.89472C121.935 7.14885 121.994 7.4225 121.997 7.6996C121.991 7.97588 121.93 8.24825 121.818 8.50112C121.707 8.75398 121.546 8.98238 121.345 9.17323C121.145 9.36409 120.909 9.51366 120.65 9.61339C120.392 9.71311 120.116 9.76103 119.839 9.7544C119.27 9.76864 118.719 9.55816 118.306 9.16885C117.892 8.77953 117.65 8.24296 117.631 7.67612C117.656 7.11546 117.901 6.58721 118.315 6.20665C118.729 5.8261 119.277 5.62412 119.839 5.64481ZM121.606 22.453C121.606 23.3337 120.793 24.0235 119.839 24.0235C118.885 24.0235 118.087 23.316 118.073 22.453V13.5117C118.096 12.6517 118.909 11.9413 119.839 11.9413C120.769 11.9413 121.606 12.6252 121.606 13.5117V22.453Z" fill="white"/>
<path d="M36.6913 20.7006C37.3042 20.6977 37.9065 20.5413 38.443 20.2456C39.0789 19.8904 40.1181 19.7407 40.754 20.3718C40.9221 20.5503 41.0504 20.7622 41.1307 20.9937C41.2109 21.2251 41.2411 21.4708 41.2194 21.7147C41.1978 21.9586 41.1246 22.1952 41.0048 22.4089C40.8851 22.6227 40.7213 22.8087 40.5244 22.955C39.402 23.7335 38.0643 24.1439 36.6972 24.1292C33.2939 24.1292 30.1968 21.7485 30.1968 18.0264V17.9501C30.1968 14.228 33.2939 11.8503 36.6972 11.8503C38.0641 11.8369 39.4014 12.2472 40.5244 13.0245C40.7213 13.1707 40.8851 13.3568 41.0048 13.5706C41.1246 13.7843 41.1978 14.0209 41.2194 14.2648C41.2411 14.5087 41.2109 14.7544 41.1307 14.9858C41.0504 15.2172 40.9221 15.4291 40.754 15.6076C40.1181 16.2417 39.0789 16.089 38.443 15.7339C37.9065 15.4382 37.3042 15.2817 36.6913 15.2789C35.1692 15.2789 33.7973 16.318 33.7973 17.9618V18.0382C33.7973 19.6644 35.1692 20.7006 36.6913 20.7006Z" fill="#B5B5B5"/>
<path d="M42.9502 17.9413C42.9502 14.2192 45.7176 11.8415 49.168 11.8415C52.6184 11.8415 55.4152 14.2192 55.4152 17.9413C55.4152 21.6634 52.6213 24.1057 49.168 24.1057C45.7147 24.1057 42.9502 21.6634 42.9502 17.9413ZM51.8618 17.9413C51.8618 17.2328 51.5795 16.5534 51.0771 16.0524C50.5747 15.5515 49.8933 15.2701 49.1827 15.2701C48.4722 15.2701 47.7908 15.5515 47.2883 16.0524C46.7859 16.5534 46.5037 17.2328 46.5037 17.9413C46.5037 18.6497 46.7859 19.3292 47.2883 19.8301C47.7908 20.3311 48.4722 20.6125 49.1827 20.6125C49.8933 20.6125 50.5747 20.3311 51.0771 19.8301C51.5795 19.3292 51.8618 18.6497 51.8618 17.9413Z" fill="#B5B5B5"/>
<path d="M66.576 7.08023C66.5995 6.22015 67.4121 5.51272 68.3424 5.51272C69.2727 5.51272 70.1088 6.19667 70.1088 7.08023V22.4472C70.1088 23.3278 69.2962 24.0176 68.3424 24.0176C67.3885 24.0176 66.5907 23.3102 66.576 22.4472V22.2211C66.1896 22.8089 65.6617 23.2907 65.0404 23.6224C64.4191 23.9542 63.7244 24.1254 63.0196 24.1203C59.999 24.1203 57.2552 21.8924 57.2552 17.956C57.2552 14.0196 59.999 11.8297 63.0196 11.8297C63.7821 11.8297 65.5603 12.1585 66.576 13.729V7.08023ZM63.7056 20.9794C65.3042 20.9794 66.5995 19.5616 66.5995 17.9912C66.5995 16.4207 65.3042 15.0059 63.7056 15.0059C61.9391 15.0059 60.9117 16.4237 60.9117 17.9912C60.9117 19.5587 61.9274 20.9794 63.7056 20.9794Z" fill="#B5B5B5"/>
<path d="M81.9349 13.5117C81.9614 12.6517 82.7739 11.9413 83.7013 11.9413C84.6287 11.9413 85.4677 12.6252 85.4677 13.5117V22.4472C85.4677 23.3278 84.6552 24.0176 83.7013 24.0176C82.7474 24.0176 81.9496 23.3102 81.9349 22.4472V22.2211C81.5492 22.8088 81.0218 23.2906 80.401 23.6225C79.7802 23.9543 79.0858 24.1255 78.3815 24.1203C75.358 24.1203 72.6171 21.8924 72.6171 17.956C72.6171 14.0196 75.358 11.8297 78.3815 11.8297C79.144 11.8297 80.9192 12.1585 81.9349 13.729V13.5117ZM79.0674 20.9795C80.666 20.9795 81.9614 19.5616 81.9614 17.9912C81.9614 16.4207 80.666 15.0059 79.0674 15.0059C77.301 15.0059 76.2735 16.4237 76.2735 17.9912C76.2735 19.5587 77.2892 20.9795 79.0674 20.9795Z" fill="#B5B5B5"/>
</g>
<defs>
<clipPath id="clip0_2_28">
<rect width="122" height="33" fill="white"/>
</clipPath>
</defs>
</svg>
