<svg width="22" height="33" viewBox="0 0 22 33" fill="none" xmlns="http://www.w3.org/2000/svg">
<path d="M9.34459 30.3027L19.3496 21.8515L17.6179 19.8133L7.61288 28.2645L9.34459 30.3027Z" fill="#3A2F39"/>
<path d="M18.7364 19.0544L10.2605 9.0786L8.2164 10.8053L16.6923 20.7811L18.7364 19.0544Z" fill="#3A2F39"/>
<path d="M6.88016 13.7202C10.68 13.7202 13.7603 10.6488 13.7603 6.86008C13.7603 3.07136 10.68 0 6.88016 0C3.08035 0 0 3.07136 0 6.86008C0 10.6488 3.08035 13.7202 6.88016 13.7202Z" fill="#3A2F39"/>
<path d="M17.9791 24.1027C19.8782 24.1027 21.4177 22.5677 21.4177 20.6742C21.4177 18.7806 19.8782 17.2456 17.9791 17.2456C16.08 17.2456 14.5405 18.7806 14.5405 20.6742C14.5405 22.5677 16.08 24.1027 17.9791 24.1027Z" fill="#57B593"/>
<path d="M7.89585 33C9.79494 33 11.3345 31.465 11.3345 29.5714C11.3345 27.6779 9.79494 26.1429 7.89585 26.1429C5.99676 26.1429 4.45724 27.6779 4.45724 29.5714C4.45724 31.465 5.99676 33 7.89585 33Z" fill="#3A2F39"/>
</svg>
