<svg width="596" height="250" viewBox="0 0 596 250" fill="none" xmlns="http://www.w3.org/2000/svg">
<path fill-rule="evenodd" clip-rule="evenodd" d="M0.722878 132.165C0.722878 148.907 -3.21612 180.011 7.29565 191.086C13.612 197.708 39.3204 213.143 48.3871 216.734L48.2939 104.839C43.4226 106.494 5.26788 128.598 0.722878 132.165Z" fill="#2E4068"/>
<path fill-rule="evenodd" clip-rule="evenodd" d="M63.5081 225.527C72.7907 231.003 99.9441 248.899 110.778 249.948C123.741 251.183 156.311 230.071 159.274 226.948C155.848 222.94 96.8422 189.967 87.004 184.327C81.0085 180.879 69.11 173.072 63.5544 171.371L63.5081 225.527Z" fill="#185E89"/>
<path fill-rule="evenodd" clip-rule="evenodd" d="M66.5322 23.7992C73.8654 26.9754 82.1064 32.4932 90.1147 37.014C98.542 41.7435 106.504 46.3107 114.512 50.9243C130.249 59.966 147.29 70.8161 163.097 78.629L163.306 23.8688C152.574 18.7451 126.92 0.939941 115.443 0.0589545C103.128 -0.8684 89.6025 9.35568 78.0092 15.8703C76.0304 17.0064 74.4706 17.9337 72.2125 19.2552L66.5322 23.7992Z" fill="#2E4068"/>
<path fill-rule="evenodd" clip-rule="evenodd" d="M1.12419 113.911C6.64601 112.335 40.447 91.7261 48.6257 87.0433C56.2962 82.6387 65.0988 77.6314 72.8848 73.1572L96.7742 58.6221C92.1996 54.287 71.9837 43.6001 64.7984 39.4505C45.2526 28.1609 51.6985 30.9891 31.783 42.186C-5.73766 63.2817 2.00213 63.0499 1.12419 113.911Z" fill="#185E89"/>
<path fill-rule="evenodd" clip-rule="evenodd" d="M124.812 145.759C125.021 146.316 124.952 145.921 124.719 146.362C124.603 146.571 124.533 146.617 124.37 146.78L122.694 148.103C122.369 148.265 122.043 148.428 121.694 148.59C120.391 149.147 118.482 149.658 116.691 149.681L115.504 147.407C115.108 146.594 114.55 145.805 114.48 144.784C114.852 144.482 117.389 143.925 117.435 143.925C118.436 143.856 119.087 144.807 119.716 145.318C120.088 145.596 120.251 145.805 120.693 146.06C120.879 146.153 121.112 146.269 121.252 146.316C122.95 146.896 123.788 145.712 124.812 145.759ZM125.813 190.299C125.813 191.39 125.72 192.411 125.696 193.618C125.673 194.569 125.371 194.802 123.695 195.382C120.647 196.426 121.438 195.382 119.157 196.914L118.552 197.308C118.296 197.006 117.97 196.914 117.645 196.589C117.202 196.171 116.155 194.384 115.736 193.687C114.736 192.063 115.271 189.904 113.619 189.44C113.223 189.463 113.479 189.347 113.316 189.602L112.944 191.158C112.409 192.736 111.757 192.481 111.664 194.987C111.617 196.055 110.5 196.89 109.57 198.144C108.848 199.072 109.244 199.003 107.755 200.163C107.056 200.72 106.521 201.625 105.009 201.718C104.264 200.627 103.915 200.604 103.659 200.372C103.589 200.72 103.31 201.138 103.124 201.95C103.1 201.997 103.054 202.206 103.054 202.252L102.402 202.879C102.356 202.879 102.007 202.925 101.867 202.948C101.541 203.018 101.215 203.111 100.89 203.18C99.0978 203.645 98.004 202.716 98.3298 200.906C98.8883 197.865 98.26 197.912 98.7487 196.519C98.9581 195.916 99.0745 195.219 99.4468 194.616C100.657 192.689 100.727 194.523 99.9122 191.25C98.8418 187.003 100.122 187.653 101.378 183.545C101.774 182.175 102.007 181.015 102.681 179.785C103.17 178.926 103.147 178.995 104.101 178.671C104.869 178.392 104.846 178.299 105.148 177.626C105.171 177.603 105.171 177.58 105.195 177.556C105.427 177.069 107.08 177.255 107.592 177.649C108.22 178.09 108.22 178.253 109.174 178.462C110.78 178.81 112.362 178.253 113.386 177.858L115.108 177.139C116.644 176.442 119.367 175.468 121.135 175.468C121.438 175.166 121.065 175.166 121.414 174.284C121.67 173.634 122.462 173.031 122.625 172.056C122.718 171.615 122.485 171.383 122.485 170.686C122.438 168.922 122.578 167.298 122.392 165.627C122.322 165.093 122.229 164.628 122.229 164.164C120.926 166.625 122.066 166.067 121.368 167.901C120.763 169.479 117.901 170.106 115.853 172.056C115.271 172.636 114.363 173.866 113.712 174.214C113.34 174.4 113.595 174.33 113.502 174.237C114.154 174.237 114.433 174.121 115.085 174.098L120.018 174.121C120.414 174.214 120.274 174.168 120.507 174.353C120.065 175.468 117.156 175.607 116.179 175.746C114.41 176.025 114.247 176.257 112.385 176.187C111.78 176.187 111.617 176.025 111.059 176.071C110.338 176.117 108.778 176.93 107.894 175.746C107.522 175.235 107.708 174.029 106.219 171.777L105.637 170.663C106.079 170.593 106.521 170.431 106.94 170.315C107.824 170.083 108.592 170.385 108.592 167.251C108.569 164.745 108.243 164.93 107.592 163.514C107.382 163.05 107.243 162.632 107.219 161.959C109.221 161.959 108.569 161.797 110.128 162.586C111.734 163.375 111.664 162.981 112.06 162.748C112.339 162.586 112.06 162.609 112.269 162.702C110.477 162.191 107.312 161.077 106.102 160.033C105.032 159.128 104.217 156.11 103.542 154.811C103.31 154.393 103.263 154.486 103.287 153.859C104.497 153.859 105.265 153.697 106.382 153.743C108.383 153.789 108.546 154.555 108.825 154.718L109.034 154.648C109.174 154.555 109.36 154.462 109.43 154.416L111.082 153.604C111.361 153.488 111.687 153.372 112.013 153.256C112.269 153.557 112.129 153.372 112.292 153.673C113.014 155.182 112.455 154.764 114.712 155.414C116.155 155.832 116.365 156.226 117.226 156.598C117.412 156.667 117.575 156.737 117.668 156.783C118.506 157.132 118.901 157.271 119.646 157.758C122.229 159.429 119.087 161.217 122.113 162.586C122.113 160.729 122.857 159.29 123.253 157.689C123.439 156.876 123.602 156.041 123.579 154.973C123.579 153.836 123.718 153.209 123.718 152.141C123.858 151.793 124.37 151.956 124.719 151.422C124.859 151.213 125.045 150.633 125.068 150.308C124.975 150.47 123.672 151.654 122.857 151.909C122.857 150.378 123.23 149.542 124.3 148.66C124.486 148.521 124.416 148.428 124.579 148.59C124.114 148.73 124.044 148.706 123.462 148.706C123.509 147.662 123.602 148.196 124.37 147.175L126.325 144.691C126.511 144.459 126.953 143.623 127.162 143.554C127.162 143.763 127.395 143.415 127.023 143.716C125.371 145.016 126.604 143.856 125.58 145.295C125.557 145.318 125.301 145.619 125.277 145.619C124.975 145.828 125.231 145.759 124.812 145.759C123.765 145.759 123.23 146.409 122.089 146.246C121.205 146.13 120.507 145.527 119.925 144.993C118.157 143.391 117.109 144.296 114.619 144.296L114.317 143.739C114.27 143.6 114.27 143.391 114.201 143.136C114.131 142.765 114.014 142.486 113.991 141.952C114.038 141.929 114.084 141.859 114.107 141.906L114.294 141.813C114.317 141.813 114.34 141.813 114.363 141.836C113.875 140.42 112.292 139.028 111.199 138.146C110.244 137.38 108.313 136.196 107.08 136.498C106.824 136.544 106.731 136.707 106.614 136.568C107.499 136.614 110.058 137.148 110.687 137.635C111.268 138.053 111.571 138.378 112.06 138.865C112.432 139.237 112.921 139.538 113.27 139.979C113.619 140.397 113.456 141.117 113.526 141.651C113.619 142.254 113.735 142.463 113.735 143.298C113.037 143.229 112.618 142.857 111.897 142.811C112.129 142.718 112.525 143.298 112.874 143.554C114.061 144.482 114.759 145.643 115.341 147.058C115.946 148.567 116.365 150.819 114.247 151.143L112.153 151.051C112.246 151.236 112.199 150.981 112.176 151.19C112.083 151.84 111.664 153.302 111.152 153.627L110.547 153.743C110.407 153.766 110.105 153.743 109.942 153.743C109.477 153.743 109.034 153.743 108.569 153.743C107.755 153.743 107.103 153.627 106.126 153.627L105.171 152.35C104.45 151.445 104.52 149.449 104.753 148.405C104.822 148.103 104.915 147.871 104.846 147.592C104.706 146.989 104.636 147.407 104.52 146.617C105.66 146.617 106.032 146.548 106.917 146.873C107.848 147.221 108.546 147.778 109.221 148.428L111.106 150.053C111.385 150.378 111.175 149.937 111.175 150.192C110.919 149.983 110.756 149.472 110.617 149.217C110.384 148.846 110.175 148.521 109.942 148.196C109.407 147.499 108.988 147.035 108.243 146.478C106.847 145.434 105.102 145.039 102.681 145.039C102.588 143.6 101.541 143.136 101.192 142.161C100.936 141.465 101.518 141.233 102.076 140.861C103.007 140.212 103.403 140.722 104.52 140.745C105.009 140.745 105.497 140.745 105.986 140.745L105.195 140.629C104.799 140.536 104.636 140.49 104.148 140.49C102.356 140.467 100.634 140.235 99.3305 139.051C97.1895 137.148 98.4229 137.658 97.5386 135.755C97.399 135.453 97.0965 135.361 96.8637 135.129C95.9329 134.27 95.2348 133.156 94.7926 132.018L95.7467 131.647C96.0027 131.601 96.3285 131.531 96.5147 131.415C96.0027 130.928 95.9096 128.258 95.9096 127.121C96.8637 127.121 98.0506 127.051 98.8418 127.191C100.634 127.469 103.24 128.258 105.009 128.235C105.59 128.212 105.683 128.096 106.126 128.096L104.497 127.423C103.682 126.935 104.148 127.191 104.264 126.866C104.427 126.68 105.776 126.634 106.102 126.634C107.429 126.564 110.85 126.912 111.408 127.98L111.873 127.469C111.757 127.075 110.85 126.726 110.547 126.518C109.244 125.659 108.429 125.404 106.731 125.404C105.497 125.38 105.125 125.38 105.125 124.173C105.521 123.941 105.753 124.081 105.753 123.431L102.844 122.084C102.309 121.829 101.914 121.574 101.425 121.272C101.239 121.156 100.936 120.994 100.727 120.854C100.61 120.785 100.587 120.785 100.424 120.669C100.168 120.529 100.285 120.576 100.052 120.437C98.4229 119.508 96.0027 119.671 94.7228 118.116C94.6297 118.023 94.5134 117.837 94.4901 117.837C94.3272 117.466 94.397 117.791 94.304 117.187C96.7939 117.187 98.1436 118.046 100.587 118.046C100.401 118.139 100.308 118 100.052 117.883C99.7726 117.744 99.4701 117.628 99.2606 117.559C98.9581 117.442 98.772 117.396 98.4462 117.257C98.1204 117.141 97.9109 117.071 97.655 116.978C94.9555 116.05 94.5832 116.05 93.7222 114.147C93.3498 113.288 92.9077 112.243 94.6763 112.267C96.7707 112.267 98.7952 112.22 100.843 112.8C101.192 112.917 101.425 113.033 101.658 113.102C102.937 113.52 103.938 113.474 105.637 113.497C107.685 113.52 109.453 114.286 111.408 114.356C112.409 114.402 112.572 114.193 113.246 114.1C112.99 114.332 113.712 114.193 113.084 114.147L111.99 113.845C111.548 113.706 110.989 113.543 110.57 113.427C109.57 113.149 108.685 112.893 107.685 112.615L101.983 110.944C101.169 110.712 97.0732 109.389 96.2587 109.319C95.6769 109.273 95.0021 109.365 94.4203 109.319C93.4429 109.203 92.1165 108.391 90.8831 108.182L89.9988 107.857V107.114C90.5108 106.65 91.3718 106.511 92.0932 106.487C93.6756 106.464 94.8392 106.975 96.2354 107.323C99.4468 108.158 102.681 108.971 105.846 110.015C107.382 110.526 109.034 111.083 110.594 111.408C111.711 111.64 112.641 111.895 113.735 111.895C114.922 111.918 115.038 111.942 115.992 112.174C116.597 112.336 117.272 112.499 117.947 112.661L120.926 113.381C121.182 113.45 121.205 113.427 121.438 113.474C121.67 113.543 122.229 113.868 121.531 113.218C120.693 112.429 119.46 112.313 118.273 112.127C116.411 111.826 115.108 111.57 114.619 109.69L115.527 110.062C115.55 110.085 115.574 110.108 115.597 110.108L115.829 110.178C116.039 107.346 119.46 105.675 120.879 108.46C123.02 108.46 124.3 109.528 126.394 110.015C127.395 110.224 128.326 110.294 129.257 110.596C131.188 111.222 131.444 112.917 133.259 113.613C135.889 114.588 137.262 113.288 137.355 118.394C137.378 118.974 137.588 119.253 137.611 119.763C138.1 119.508 138.984 117.001 139.193 116.305C140.241 113.056 140.357 109.667 141.195 106.511C141.614 105.002 141.683 105.489 141.404 102.959C140.962 98.9209 139.822 98.6424 140.148 95.3001C140.217 94.4878 139.985 92.5149 139.705 91.8882C138.1 88.3835 139.124 87.7336 136.145 87.4783L135.54 88.4764C135.377 88.8477 135.121 89.1262 134.702 89.2423C134.004 89.428 133.306 88.4299 133.027 87.8961C132.142 86.2714 133.725 84.0433 130.351 84.0433C130.327 85.2966 129.839 84.9717 129.257 85.6447C129.187 84.6699 128.861 84.2754 128.163 83.7879C126.79 82.8828 127.977 81.5598 123.393 83.347C122.974 83.5094 122.555 83.5326 122.229 83.6719C121.973 83.1845 121.74 82.6971 121.508 82.2097C121.159 81.5598 120.926 81.3741 120.507 80.8635C120.181 80.4457 119.809 80.0047 119.436 79.5869L118.413 78.2872C117.109 78.5889 116.318 79.4012 115.062 78.6817C113.479 77.7998 113.665 76.5232 113.13 76.1983C111.92 75.618 108.662 76.7321 108.104 77.0802C107.405 77.498 107.755 77.9854 107.01 78.7978C105.8 80.144 106.032 79.6333 106.126 80.7242C105.148 80.8171 105.125 80.701 104.404 79.7262C103.915 79.0299 103.519 78.7514 102.542 78.5193C102.053 78.8674 101.82 79.3084 101.82 80.1208C100.843 80.1904 99.889 80.4225 99.0978 79.8887C98.7487 79.6798 97.7713 78.6121 97.4222 78.2407C96.8405 77.6605 96.0027 77.4748 95.5606 76.7785C95.1417 76.1286 94.7926 75.2931 94.4436 74.5968C91.5813 74.5968 88.9749 76.1518 87.1831 76.5696C86.578 76.1518 85.9963 75.1538 84.9723 75.2234C82.0169 75.3859 82.6918 77.4748 81.4817 78.8674C80.9698 79.4709 79.527 79.6566 78.6892 79.262C77.8747 80.7938 78.2238 80.4689 77.1301 81.7455C76.4319 82.5346 76.1527 83.5791 75.8734 84.5771C75.7105 85.1805 75.4313 85.4359 75.2219 85.9697C75.1055 86.2946 75.152 86.2018 75.0822 86.5731C74.8961 87.664 74.803 88.8709 74.4074 89.9618C74.1979 90.4956 74.035 90.4956 73.8721 90.8902C73.8256 90.9598 72.6853 95.7875 72.057 97.3194C71.3124 99.153 70.684 98.8745 70.5677 101.358C70.4979 102.751 70.4746 102.588 69.8463 103.447C69.474 103.934 69.5903 104.491 69.1249 105.443C68.2639 107.207 68.4966 111.292 68.9853 112.87C69.1947 113.566 69.4274 114.123 69.7997 114.75C70.8004 116.561 70.2419 117.025 69.8463 119.276C69.567 120.854 69.567 122.642 70.0092 124.127C70.6608 126.448 71.9174 125.914 71.2658 127.794C71.0098 128.49 70.7539 129.21 70.6142 129.976C70.2186 132.181 71.0564 134.154 71.196 136.196C71.2658 137.194 72.1734 138.007 72.6621 138.889C74.291 141.929 76.5483 143.972 77.3395 145.271C79.2012 148.381 78.6194 151.167 79.2012 154.462C79.8295 158.083 81.6912 159.708 84.0648 161.983C85.0887 162.981 85.0654 162.841 86.1592 164.071C87.7183 165.835 90.0454 168.18 91.1857 170.106C91.8372 171.15 92.4423 172.752 92.4656 174.353C92.5354 179.854 89.2309 182.709 88.1604 186.632C87.5554 188.86 87.7881 187.049 87.3925 189.904C87.2063 191.227 86.3686 194.175 85.717 195.243C84.7164 196.867 85.1818 197.285 83.4365 198.469C82.6685 198.979 82.6685 199.119 82.1798 199.931C81.1559 201.648 80.2716 203.575 78.4332 204.527C78.8288 205.246 82.1798 208.356 82.622 208.472C82.7849 207.822 82.9245 207.59 83.227 207.103C84.0182 207.103 84.7164 207.172 85.2749 207.66C85.9963 208.24 85.1352 208.913 85.0887 209.563C86.1359 209.563 87.346 209.052 88.2768 208.82C88.5561 208.751 88.7655 208.681 89.1611 208.704C89.4869 208.728 89.3705 208.658 89.5102 208.797C89.6963 209.006 89.6265 208.844 89.4636 209.006C89.3007 209.145 89.0447 209.238 88.8353 209.377C88.5561 209.54 88.3699 209.656 88.1604 209.818C88.1604 210.491 88.3699 210.724 88.5328 211.281H89.1378C89.1844 210.7 89.324 210.77 89.7661 210.561C90.2083 211.211 90.7202 211.931 91.3486 212.395C92.0467 211.884 92.5121 210.515 92.5819 209.702C93.0008 210.004 93.3498 210.909 93.6989 211.42C94.304 211.35 94.7926 211.095 95.421 211.049V213.137C96.0493 212.812 95.9795 213.207 96.3285 212.441C96.5845 211.907 96.5147 211.652 96.282 211.165C99.0745 211.165 103.147 210.445 104.753 210.422C107.359 210.399 107.894 211.327 109.546 212.65C109.989 213.021 110.384 213.323 110.826 213.718C111.943 214.693 113.386 216.039 114.736 216.689C115.643 217.13 115.318 217.106 115.899 217.872C117.272 219.706 119.157 220.936 121.368 221.725C124.44 222.839 123.09 223.953 126.232 223.35C127.721 223.071 129.024 223.605 130.397 223.768C132.235 224.023 130.537 222.027 135.866 222.584L140.985 223.164C142.009 223.28 142.219 222.166 143.103 221.795C144.546 221.168 147.524 222.143 149.2 222.305C149.875 222.375 150.806 222.329 151.504 222.329C151.48 221.331 151.015 220.309 150.643 219.636L153.226 217.176C152.202 217.153 151.55 216.456 150.852 215.992C150.038 215.458 149.502 215.157 148.595 214.693C147.362 214.019 145.407 212.534 145.36 210.793C146.012 210.77 146.64 210.561 147.338 210.538C148.199 210.515 148.548 210.677 149.433 210.677V210.561C147.455 210.561 143.824 210.306 142.172 209.563L138.263 207.196C137.704 206.731 137.681 206.546 137.867 205.757C137.634 205.641 137.518 205.617 137.262 205.501C135.936 204.875 134.958 203.784 134.027 202.716C131.84 200.256 130.49 197.076 128.535 194.453C128.047 193.803 127.581 193.084 127.162 192.388L125.813 190.299Z" fill="#185E89"/>
<path d="M425.718 167.131C433.399 167.131 439.328 169.051 443.502 172.892C447.761 176.649 449.89 181.868 449.89 188.548V229.126C447.218 229.627 443.795 229.878 439.62 229.878C435.529 229.878 432.147 229.627 429.475 229.126V192.43C429.475 188.088 427.388 185.917 423.213 185.917C420.959 185.917 418.913 186.418 417.076 187.42V229.126C414.571 229.627 411.273 229.878 407.182 229.878C403.091 229.878 399.626 229.627 396.787 229.126V146.842C399.292 146.341 402.59 146.09 406.681 146.09C410.689 146.09 414.154 146.341 417.076 146.842V168.383C419.999 167.549 422.879 167.131 425.718 167.131Z" fill="#185E89"/>
<path d="M372.592 231.255C363.241 231.255 356.019 228.625 350.925 223.365C345.832 218.021 343.286 210.006 343.286 199.318C343.286 188.882 345.916 180.908 351.176 175.397C356.436 169.886 363.366 167.131 371.966 167.131C375.64 167.131 379.147 167.716 382.487 168.884C385.91 169.97 388.54 171.222 390.377 172.642C389.959 175.481 388.874 178.361 387.121 181.283C385.367 184.122 383.322 186.377 380.984 188.047C378.479 185.709 375.765 184.54 372.843 184.54C366.831 184.54 363.825 189.382 363.825 199.068C363.825 204.078 364.535 207.793 365.955 210.215C367.457 212.636 369.879 213.847 373.219 213.847C376.475 213.847 379.439 212.636 382.111 210.215C386.787 213.137 389.876 218.021 391.379 224.868C385.785 229.126 379.523 231.255 372.592 231.255Z" fill="#185E89"/>
<path d="M313.122 167.382C320.887 167.382 327.023 169.803 331.532 174.646C336.041 179.405 338.254 186.293 338.17 195.311C338.17 198.734 338.003 201.782 337.669 204.453H305.732C306.066 208.294 307.026 210.924 308.613 212.344C310.199 213.68 312.704 214.348 316.127 214.348C320.386 214.348 325.27 212.719 330.781 209.463C334.705 213.137 336.876 218.147 337.293 224.492C330.697 229.001 322.89 231.255 313.873 231.255C305.022 231.255 298.009 228.583 292.832 223.24C287.655 217.896 285.067 210.131 285.067 199.945C285.067 189.675 287.655 181.701 292.832 176.023C298.009 170.262 304.772 167.382 313.122 167.382ZM305.732 193.432H319.509C319.509 187.17 317.422 183.872 313.247 183.538C308.905 183.538 306.4 186.836 305.732 193.432Z" fill="#185E89"/>
<path d="M275.014 210.465C276.934 211.884 278.646 214.055 280.149 216.978C281.735 219.816 282.695 222.655 283.029 225.494C277.853 229.168 271.924 231.005 265.245 231.005C258.148 231.005 252.553 229.335 248.462 225.995C244.371 222.572 242.325 217.479 242.325 210.715V186.168H233.684C233.266 183.246 233.057 180.323 233.057 177.401C233.057 174.98 233.266 172.182 233.684 169.01H242.325V154.982C245.999 154.482 249.422 154.231 252.595 154.231C256.186 154.231 259.525 154.482 262.615 154.982V169.01H279.147C279.815 171.932 280.149 174.687 280.149 177.276C280.149 180.115 279.815 183.079 279.147 186.168H262.615V206.708C262.615 210.966 264.702 213.095 268.877 213.095C270.797 213.095 272.843 212.218 275.014 210.465Z" fill="#185E89"/>
<path d="M228.577 227.749C226.072 230.253 223.108 231.506 219.685 231.506C216.262 231.506 213.298 230.253 210.793 227.749C208.371 225.244 207.161 222.28 207.161 218.856C207.161 215.35 208.371 212.385 210.793 209.964C213.298 207.459 216.262 206.207 219.685 206.207C223.108 206.207 226.072 207.459 228.577 209.964C231.082 212.385 232.334 215.35 232.334 218.856C232.334 222.28 231.082 225.244 228.577 227.749Z" fill="#185E89"/>
<path d="M570.467 106.138C565.123 106.138 560.322 105.428 556.064 104.009C551.806 102.589 548.633 100.919 546.546 98.999C547.548 92.6534 550.261 87.8942 554.686 84.7213C559.696 88.2281 565.165 89.9815 571.093 89.9815C574.016 89.9815 575.477 88.9796 575.477 86.9757C575.477 85.6398 574.725 84.5961 573.222 83.8446C571.803 83.0097 569.006 81.966 564.831 80.7136C562.41 79.9621 560.406 79.2107 558.819 78.4592C557.317 77.7078 555.647 76.6223 553.81 75.2029C551.973 73.7835 550.595 71.9466 549.677 69.6922C548.758 67.4379 548.299 64.766 548.299 61.6767C548.299 55.665 550.595 50.9058 555.187 47.399C559.78 43.8922 565.583 42.1388 572.596 42.1388C582.365 42.1388 589.796 44.0175 594.889 47.7747C593.887 54.4544 591.299 59.2136 587.124 62.0524C583.2 59.5476 578.65 58.2951 573.473 58.2951C569.716 58.2951 567.837 59.2136 567.837 61.0505C567.837 62.1359 568.505 63.0126 569.841 63.6806C571.177 64.3485 573.849 65.2252 577.856 66.3107C583.367 67.8971 587.709 70.1097 590.882 72.9485C594.138 75.7039 595.766 80.0456 595.766 85.9738C595.766 92.2359 593.553 97.1621 589.128 100.752C584.703 104.343 578.483 106.138 570.467 106.138Z" fill="#2E4068"/>
<path d="M513.485 106.013C504.634 106.013 497.579 103.341 492.318 97.9971C487.058 92.6534 484.428 84.6796 484.428 74.0757C484.428 63.6388 487.058 55.665 492.318 50.1544C497.662 44.6437 504.718 41.8883 513.485 41.8883C522.252 41.8883 529.265 44.6019 534.525 50.0291C539.785 55.4563 542.416 63.4718 542.416 74.0757C542.416 84.4291 539.785 92.3612 534.525 97.8718C529.265 103.299 522.252 106.013 513.485 106.013ZM513.485 88.4786C519.079 88.4786 521.876 83.6777 521.876 74.0757C521.876 64.3068 519.079 59.4223 513.485 59.4223C507.807 59.4223 504.968 64.3068 504.968 74.0757C504.968 83.6777 507.807 88.4786 513.485 88.4786Z" fill="#2E4068"/>
<path d="M450.479 41.8883C459.496 41.8883 466.593 44.5184 471.77 49.7786C476.947 54.9553 479.535 62.8039 479.535 73.3243C479.535 83.5942 476.863 91.6514 471.519 97.4961C466.259 103.257 459.413 106.138 450.98 106.138C448.308 106.138 446.179 105.929 444.592 105.512V126.928C441.085 127.429 437.704 127.68 434.448 127.68C431.024 127.68 427.601 127.429 424.178 126.928V49.6534C431.275 44.4767 440.042 41.8883 450.479 41.8883ZM449.226 87.8524C455.822 88.0194 459.12 83.3437 459.12 73.8252C459.12 64.8078 455.739 60.299 448.976 60.299C447.723 60.299 446.262 60.5078 444.592 60.9252V87.2262C445.845 87.6437 447.389 87.8524 449.226 87.8524Z" fill="#2E4068"/>
<path d="M389.998 41.8883C407.115 41.8883 415.673 49.3194 415.673 64.1815V103.883C413.001 104.384 409.62 104.635 405.528 104.635C401.521 104.635 398.097 104.384 395.259 103.883V67.1874C395.259 62.8456 393.129 60.6747 388.871 60.6747C386.784 60.6747 384.738 61.134 382.734 62.0524C382.818 62.4699 382.859 63.1796 382.859 64.1815V103.883C380.188 104.384 376.764 104.635 372.59 104.635C368.498 104.635 365.117 104.384 362.445 103.883V67.1874C362.445 62.8456 360.274 60.6747 355.932 60.6747C353.761 60.6747 351.841 61.1757 350.171 62.1777V103.883C347.499 104.384 344.076 104.635 339.901 104.635C335.81 104.635 332.428 104.384 329.757 103.883V50.1544C332.094 48.234 335.726 46.3971 340.653 44.6437C345.579 42.8068 351.09 41.8883 357.185 41.8883C364.198 41.8883 369.751 43.1408 373.842 45.6456C379.019 43.1408 384.404 41.8883 389.998 41.8883Z" fill="#2E4068"/>
<path d="M295.195 42.1388C312.979 42.1388 321.871 50.4048 321.871 66.9369V100.502C313.605 104.092 304.421 105.887 294.318 105.887C277.953 105.887 269.771 99.333 269.771 86.2243C269.771 79.7951 271.858 74.9524 276.033 71.6961C280.207 68.4398 285.885 66.8951 293.066 67.0621C296.238 67.0621 299.119 67.4379 301.707 68.1893V65.434C301.707 61.5097 298.869 59.5476 293.191 59.5476C288.348 59.5476 283.965 60.967 280.04 63.8058C275.198 60.8835 272.234 56.3747 271.148 50.2796C277.243 44.8524 285.259 42.1388 295.195 42.1388ZM289.684 85.598C289.684 87.6019 290.31 89.1883 291.563 90.3573C292.899 91.5262 294.736 92.1107 297.073 92.1107C297.992 92.1107 299.537 91.9437 301.707 91.6097V80.0874C300.038 79.6699 298.242 79.4612 296.322 79.4612C291.897 79.4612 289.684 81.5068 289.684 85.598Z" fill="#2E4068"/>
<path d="M244.357 106.138C232.835 106.138 223.776 102.339 217.18 94.7408C210.667 87.0592 207.411 76.7058 207.411 63.6806C207.411 50.7388 210.792 40.3854 217.556 32.6204C224.319 24.7718 233.294 20.8476 244.483 20.8476C252.999 20.8476 260.18 23.1019 266.024 27.6107C265.524 30.7835 264.313 33.8728 262.392 36.8786C260.556 39.801 258.259 42.1388 255.504 43.8922C252.081 41.4709 248.741 40.2602 245.485 40.2602C240.308 40.2602 236.342 42.3476 233.587 46.5223C230.915 50.6971 229.579 56.4165 229.579 63.6806C229.579 70.7777 230.915 76.4553 233.587 80.7136C236.342 84.8883 240.266 86.9757 245.359 86.9757C249.868 86.9757 253.709 85.4728 256.882 82.467C262.81 86.3912 266.358 91.9854 267.527 99.2495C261.599 103.842 253.876 106.138 244.357 106.138Z" fill="#2E4068"/>
</svg>
