<?xml version="1.0" standalone="no"?>
<!DOCTYPE svg PUBLIC "-//W3C//DTD SVG 20010904//EN"
 "http://www.w3.org/TR/2001/REC-SVG-20010904/DTD/svg10.dtd">
<svg version="1.0" xmlns="http://www.w3.org/2000/svg"
 width="500.000000pt" height="500.000000pt" viewBox="0 0 500.000000 500.000000"
 preserveAspectRatio="xMidYMid meet">

<g transform="translate(0.000000,500.000000) scale(0.100000,-0.100000)"
fill="#000000" stroke="none">
<path d="M2412 3839 c-49 -9 -105 -41 -126 -71 -14 -20 -15 -19 -44 13 -28 31
-35 34 -89 34 -77 -1 -110 -24 -156 -113 -38 -73 -63 -100 -105 -118 l-27 -11
25 -14 c15 -8 55 -14 100 -14 87 0 119 16 155 81 18 31 27 39 51 39 28 0 29
-2 35 -55 8 -73 33 -123 81 -165 145 -124 370 -19 369 172 0 73 -10 101 -56
151 -57 64 -129 88 -213 71z"/>
<path d="M3515 3838 c-15 -37 -102 -483 -98 -495 3 -8 16 -13 32 -11 25 3 27
7 69 203 23 110 43 225 45 255 2 50 0 55 -21 58 -12 2 -24 -3 -27 -10z"/>
<path d="M3170 3702 c-55 -54 -100 -105 -100 -112 0 -7 44 -57 97 -112 102
-103 134 -119 141 -69 3 19 -13 41 -74 102 l-79 79 79 79 c60 61 77 84 74 102
-6 47 -35 32 -138 -69z"/>
<path d="M3697 3793 c-20 -20 -1 -54 68 -123 41 -41 75 -78 75 -82 0 -4 -34
-41 -76 -82 -58 -57 -75 -80 -72 -98 7 -49 40 -33 141 70 53 55 97 105 97 113
0 18 -193 209 -211 209 -9 0 -19 -3 -22 -7z"/>
<path d="M2072 3401 c-163 -79 -321 -233 -420 -411 -57 -103 -121 -295 -146
-442 l-7 -38 209 0 209 0 16 118 c16 110 33 176 71 263 19 46 93 139 109 139
6 0 54 -63 104 -140 51 -77 104 -146 117 -155 21 -14 64 -16 302 -15 270 0
279 1 301 22 34 31 31 86 -5 121 l-28 27 -214 2 -214 3 -76 210 c-42 116 -84
224 -94 242 -23 37 -78 70 -132 78 -31 5 -52 0 -102 -24z"/>
<path d="M3355 3097 c-15 -24 -155 -406 -155 -426 0 -8 -54 -11 -184 -11
l-185 0 -20 -26 c-12 -15 -21 -37 -21 -49 0 -12 9 -34 21 -49 l20 -26 224 0
c248 0 243 -1 273 70 26 63 162 458 162 473 0 8 -9 26 -21 41 -28 35 -91 37
-114 3z"/>
<path d="M3643 2208 c-29 -6 -55 -22 -82 -49 -35 -36 -40 -48 -47 -106 -3 -36
-4 -119 -2 -185 5 -114 6 -120 33 -148 39 -41 86 -54 190 -55 115 0 172 20
210 74 l26 39 -3 182 -3 182 -31 28 c-51 45 -183 63 -291 38z m147 -155 c8 -7
16 -214 9 -225 -3 -5 -28 -8 -55 -6 l-49 3 -3 109 c-1 61 -1 115 2 122 4 11
82 9 96 -3z"/>
<path d="M873 2191 c-23 -19 -23 -23 -23 -258 0 -173 3 -242 12 -251 8 -8 63
-12 183 -12 203 0 205 1 205 93 l0 57 -110 0 -110 0 0 35 c0 19 5 35 10 35 6
0 10 -4 10 -10 0 -5 24 -10 54 -10 47 0 57 4 75 26 23 29 27 74 11 105 -9 16
-22 19 -85 19 -71 0 -75 1 -75 23 0 21 2 22 93 19 115 -5 130 6 125 89 l-3 54
-175 2 c-159 2 -177 1 -197 -16z"/>
<path d="M1347 2196 c-9 -9 -18 -44 -22 -78 -9 -82 -2 -419 8 -435 6 -10 57
-13 196 -13 241 0 231 -7 231 167 0 137 3 133 -84 133 -73 0 -91 -20 -83 -95
l6 -55 -50 0 -49 0 -2 193 -3 192 -66 3 c-50 2 -71 -1 -82 -12z"/>
<path d="M1927 2192 c-10 -10 -38 -70 -63 -133 -42 -106 -46 -122 -51 -230 -7
-149 -3 -159 76 -159 74 0 91 16 91 88 0 47 18 82 28 54 2 -7 23 -12 48 -12
l44 0 0 -59 c0 -68 4 -71 84 -71 80 0 86 11 86 159 0 120 -1 123 -46 244 -25
67 -51 125 -57 129 -7 4 -60 8 -118 8 -90 0 -108 -3 -122 -18z m138 -173 c4
-16 16 -39 28 -49 l21 -20 -57 0 c-64 0 -65 2 -41 74 13 37 19 44 29 36 8 -6
17 -25 20 -41z"/>
<path d="M2450 2200 c-20 -5 -50 -25 -72 -49 -38 -40 -38 -41 -38 -125 0 -79
2 -88 28 -117 24 -27 37 -32 121 -44 51 -8 96 -17 100 -20 15 -15 -33 -25
-125 -25 -121 0 -126 -4 -122 -87 l3 -58 151 0 c142 0 152 1 185 24 55 37 69
71 69 163 0 74 -2 82 -28 108 -28 27 -100 50 -161 50 -33 0 -60 25 -44 41 7 7
17 8 29 1 11 -5 50 -7 87 -4 83 5 100 23 95 99 l-3 48 -120 2 c-66 1 -136 -3
-155 -7z"/>
<path d="M2997 2190 c-15 -18 -17 -48 -17 -264 0 -275 -6 -256 84 -256 80 0
86 11 86 153 0 64 4 118 9 121 10 6 21 -16 21 -41 0 -8 18 -37 40 -63 35 -42
40 -54 40 -97 0 -27 5 -54 12 -61 7 -7 38 -12 69 -12 50 0 60 3 78 26 20 25
21 39 21 251 0 136 -4 232 -10 244 -16 29 -121 28 -150 -3 -21 -23 -28 -92
-10 -103 12 -7 13 -45 2 -45 -5 0 -41 38 -81 85 l-72 85 -52 0 c-40 0 -57 -5
-70 -20z"/>
<path d="M1625 1601 c-60 -9 -116 -20 -122 -24 -8 -5 -13 -29 -13 -58 0 -47 1
-49 28 -49 69 2 254 29 267 40 10 8 15 30 15 61 0 49 0 49 -32 48 -18 0 -82
-8 -143 -18z"/>
<path d="M1550 1447 c-63 -17 -107 -46 -122 -81 -18 -43 -18 -329 1 -373 23
-55 85 -78 211 -77 117 1 168 18 210 71 20 26 21 36 18 211 l-3 184 -34 29
c-56 46 -179 62 -281 36z m138 -150 c6 -7 12 -62 13 -122 l2 -110 -48 -3 c-32
-2 -51 1 -56 10 -10 15 -12 222 -2 231 11 12 80 7 91 -6z"/>
<path d="M3559 1446 c-50 -13 -104 -48 -119 -76 -6 -10 -10 -96 -10 -193 0
-162 2 -176 21 -201 34 -43 83 -58 189 -60 110 -1 170 17 216 65 29 30 29 31
32 172 4 170 -2 220 -32 252 -44 47 -196 69 -297 41z m146 -148 c2 -7 5 -64 7
-126 l3 -112 -47 0 c-26 0 -50 5 -54 11 -5 9 -9 160 -5 222 1 13 10 17 46 17
28 0 47 -5 50 -12z"/>
<path d="M1086 1439 c-52 -12 -95 -45 -112 -85 -22 -52 -19 -308 4 -354 30
-60 69 -74 210 -79 154 -4 172 4 172 80 0 31 -5 51 -13 55 -7 2 -55 8 -107 12
l-95 7 -3 113 -3 112 91 0 c77 0 93 3 110 20 23 23 28 98 8 118 -14 14 -202
15 -262 1z"/>
<path d="M1972 1433 c-22 -18 -23 -20 -20 -263 l3 -245 144 -3 c175 -3 233 10
280 63 l31 36 0 160 c0 252 -9 262 -260 267 -139 3 -158 2 -178 -15z m258
-140 c3 -3 7 -52 10 -110 4 -73 1 -108 -7 -114 -6 -6 -31 -9 -55 -7 l-43 3 -3
123 -3 123 48 -7 c26 -3 50 -9 53 -11z"/>
<path d="M2498 1439 c-14 -8 -18 -23 -18 -69 0 -55 2 -60 25 -66 14 -3 34 -4
45 -1 11 3 22 2 24 -2 2 -3 6 -58 7 -121 l3 -115 -30 0 c-16 0 -39 -4 -52 -9
-21 -7 -23 -13 -20 -69 l3 -62 160 -3 c199 -3 205 -1 205 80 0 56 -1 58 -27
59 -16 1 -35 2 -43 3 -12 1 -16 23 -18 125 -3 122 -2 123 19 118 11 -3 32 -1
45 5 21 10 24 18 24 69 0 43 -4 58 -16 63 -27 10 -318 6 -336 -5z"/>
<path d="M3055 1444 c-40 -9 -103 -48 -119 -75 -13 -22 -16 -58 -16 -189 0
-193 9 -217 87 -244 54 -19 302 -23 334 -6 17 10 19 22 19 140 l0 130 -71 0
c-94 0 -109 -9 -109 -65 0 -25 5 -45 10 -45 6 0 10 -7 10 -15 0 -11 -11 -15
-37 -15 -62 0 -64 4 -61 130 l3 113 87 -2 c76 -2 89 0 107 18 17 17 20 29 15
64 -10 71 -3 67 -126 66 -62 -1 -122 -3 -133 -5z"/>
</g>
</svg>
